<svg width="181" height="45" viewBox="0 0 181 45" fill="none" xmlns="http://www.w3.org/2000/svg">
<g clip-path="url(#clip0_333_47)">
<path d="M23.5226 25.1941C24.5854 22.931 26.2149 21.2338 28.4113 20.1199C28.6062 20.0138 29.049 20.0845 29.2084 20.2613C34.2566 25.2648 39.287 30.2859 44.2998 35.307C45.1854 36.191 45.1677 37.2165 44.2998 38.1182C43.5027 38.9491 42.6879 39.7624 41.8554 40.558C40.8458 41.5304 39.8539 41.5304 38.8442 40.5226C36.205 37.906 33.5835 35.2717 30.9443 32.655C28.6947 30.4097 26.4275 28.1643 24.178 25.9013C23.9654 25.6891 23.7529 25.4416 23.5226 25.1941Z" fill="white"/>
<path d="M19.4131 7.93823C22.6723 11.1914 25.8606 14.3738 29.1198 17.6446C25.4709 19.1474 22.7963 21.7463 21.3261 25.353C18.1024 22.153 14.9141 18.9529 11.6726 15.7351C15.2683 14.2677 17.8898 11.6157 19.4131 7.93823Z" fill="white"/>
<path d="M24.355 0C24.8687 0.28288 25.3824 0.45968 25.7366 0.81328C29.2615 4.29624 32.7686 7.79688 36.2581 11.2975C37.1437 12.1815 37.1437 13.2246 36.2935 14.1086C35.461 14.975 34.6108 15.8413 33.7251 16.6722C32.8572 17.5032 31.8298 17.5032 30.9619 16.6546C27.4193 13.1539 23.8945 9.6356 20.3873 6.0996C19.5371 5.23328 19.5371 4.20784 20.3696 3.3592C21.2198 2.45752 22.0878 1.57352 23.0088 0.74256C23.3631 0.42432 23.8591 0.2652 24.355 0Z" fill="white"/>
<path d="M16.278 33.4152C15.7643 33.1147 15.2329 32.9379 14.8964 32.5843C11.3892 29.1367 7.91752 25.6537 4.44579 22.1708C3.52472 21.2337 3.50701 20.226 4.41037 19.2889C5.22516 18.4403 6.05766 17.6093 6.90788 16.796C7.79353 15.9297 8.83859 15.912 9.72423 16.796C13.2314 20.279 16.7385 23.7796 20.228 27.2803C21.1313 28.182 21.1313 29.1897 20.2634 30.0914C19.4309 30.9754 18.5807 31.8417 17.695 32.6373C17.3231 32.9909 16.8094 33.15 16.278 33.4152Z" fill="white"/>
<path d="M-0.00012207 44.9956C-0.00012207 43.758 -0.00012207 42.5734 -0.00012207 41.3535C8.76775 41.3535 17.5179 41.3535 26.3389 41.3535C26.3389 42.5381 26.3389 43.7403 26.3389 44.9956C17.5711 44.9956 8.82089 44.9956 -0.00012207 44.9956Z" fill="white"/>
<path d="M22.6547 39.3556C16.3134 39.3556 10.0962 39.3556 3.80815 39.3556C3.80815 38.5777 3.71959 37.8174 3.82587 37.0749C3.96757 36.1025 4.71151 35.5897 5.82742 35.5721C8.04153 35.5544 10.2556 35.5721 12.4698 35.5721C15.0381 35.5721 17.6065 35.5721 20.1749 35.5721C22.0524 35.5721 22.6724 36.1909 22.6724 38.0473C22.6547 38.4716 22.6547 38.8782 22.6547 39.3556Z" fill="white"/>
</g>
<path d="M168.67 36.1599L160.59 16.6799H166.27L171.63 31.5599H169.71L175.27 16.6799H180.99L172.39 36.1199L168.67 36.1599ZM163.31 44.0799L169.19 31.6399L172.39 36.1199L168.87 44.0799H163.31Z" fill="white"/>
<path d="M149.661 35.9999V14.5999C149.661 13.0532 149.995 11.6932 150.661 10.5199C151.328 9.31989 152.275 8.37323 153.501 7.67989C154.728 6.98656 156.168 6.63989 157.821 6.63989C159.075 6.63989 160.155 6.85323 161.061 7.27989C161.968 7.70656 162.781 8.29323 163.501 9.03989L160.181 12.3999C159.888 12.1066 159.568 11.8799 159.221 11.7199C158.875 11.5599 158.435 11.4799 157.901 11.4799C156.941 11.4799 156.195 11.7466 155.661 12.2799C155.155 12.7866 154.901 13.5199 154.901 14.4799V35.9999H149.661ZM145.181 21.2799V16.6799H160.621V21.2799H145.181Z" fill="white"/>
<path d="M137.979 35.9998V16.6798H143.259V35.9998H137.979ZM140.619 13.5598C139.766 13.5598 139.059 13.2798 138.499 12.7198C137.939 12.1331 137.659 11.4131 137.659 10.5598C137.659 9.73315 137.939 9.02648 138.499 8.43982C139.059 7.85315 139.766 7.55981 140.619 7.55981C141.499 7.55981 142.206 7.85315 142.739 8.43982C143.299 9.02648 143.579 9.73315 143.579 10.5598C143.579 11.4131 143.299 12.1331 142.739 12.7198C142.206 13.2798 141.499 13.5598 140.619 13.5598Z" fill="white"/>
<path d="M128.897 35.9998V7.07983H134.137V35.9998H128.897Z" fill="white"/>
<path d="M104.114 35.9999L96.8744 16.6799H102.154L106.874 30.7199L105.274 30.7599L110.114 16.6799H113.914L118.754 30.7599L117.154 30.7199L121.874 16.6799H127.154L119.954 35.9999H116.154L111.274 22.6399H112.754L107.874 35.9999H104.114Z" fill="white"/>
<path d="M84.3187 36.3998C82.5587 36.3998 80.972 35.9598 79.5587 35.0798C78.1454 34.1998 77.0387 32.9998 76.2387 31.4798C75.4387 29.9598 75.0387 28.2531 75.0387 26.3598C75.0387 24.4398 75.4387 22.7198 76.2387 21.1998C77.0387 19.6798 78.1454 18.4798 79.5587 17.5998C80.972 16.7198 82.5587 16.2798 84.3187 16.2798C85.7054 16.2798 86.9454 16.5598 88.0387 17.1198C89.132 17.6798 89.9987 18.4665 90.6387 19.4798C91.3054 20.4665 91.6654 21.5865 91.7187 22.8398V29.7998C91.6654 31.0798 91.3054 32.2131 90.6387 33.1998C89.9987 34.1865 89.132 34.9731 88.0387 35.5598C86.9454 36.1198 85.7054 36.3998 84.3187 36.3998ZM85.2787 31.5598C86.7454 31.5598 87.932 31.0798 88.8387 30.1198C89.7454 29.1331 90.1987 27.8665 90.1987 26.3198C90.1987 25.3065 89.9854 24.4131 89.5587 23.6398C89.1587 22.8398 88.5854 22.2265 87.8387 21.7998C87.1187 21.3465 86.2654 21.1198 85.2787 21.1198C84.3187 21.1198 83.4654 21.3465 82.7187 21.7998C81.9987 22.2265 81.4254 22.8398 80.9987 23.6398C80.5987 24.4131 80.3987 25.3065 80.3987 26.3198C80.3987 27.3598 80.5987 28.2798 80.9987 29.0798C81.4254 29.8531 81.9987 30.4665 82.7187 30.9198C83.4654 31.3465 84.3187 31.5598 85.2787 31.5598ZM89.9187 35.9998V30.7998L90.7587 26.0798L89.9187 21.4398V16.6798H95.1187V35.9998H89.9187Z" fill="white"/>
<path d="M55.88 35.9999V7.87988H61.32V35.9999H55.88ZM59.88 35.9999V31.1599H74.2V35.9999H59.88Z" fill="white"/>
<defs>
<clipPath id="clip0_333_47">
<rect width="44.9553" height="44.9956" fill="white"/>
</clipPath>
</defs>
</svg>
